<svg xmlns="http://www.w3.org/2000/svg" viewBox="0 0 64 64" width="64" height="64">
  <defs>
    <linearGradient id="portal-gradient" x1="0%" y1="0%" x2="100%" y2="100%">
      <stop offset="0%" style="stop-color:#4f46e5;stop-opacity:1" />
      <stop offset="100%" style="stop-color:#9333ea;stop-opacity:1" />
    </linearGradient>
    <filter id="pixelate" x="-10%" y="-10%" width="120%" height="120%">
      <feFlood flood-color="#ffffff" flood-opacity="0" result="flood" />
      <feComposite in="SourceGraphic" in2="flood" operator="over" result="composite" />
      <feMorphology operator="dilate" radius="1" in="composite" result="dilate" />
      <feMorphology operator="erode" radius="1" in="dilate" result="erode" />
    </filter>
  </defs>
  
  <path d="M32,4 C16.536,4 4,16.536 4,32 C4,47.464 16.536,60 32,60 C47.464,60 60,47.464 60,32 C60,16.536 47.464,4 32,4 Z M32,12 C43.046,12 52,20.954 52,32 C52,43.046 43.046,52 32,52 C20.954,52 12,43.046 12,32 C12,20.954 20.954,12 32,12 Z" fill="url(#portal-gradient)" filter="url(#pixelate)" />

  <g transform="translate(20, 20)" filter="url(#pixelate)">
    <rect x="0" y="2" width="14" height="10" fill="#06b6d4" />
    <rect x="2" y="12" width="4" height="2" fill="#06b6d4" />
    <rect x="4" y="14" width="2" height="2" fill="#06b6d4" />
    
    <rect x="8" y="8" width="14" height="10" fill="#d946ef" opacity="0.9" />
    <rect x="16" y="18" width="4" height="2" fill="#d946ef" opacity="0.9" />
    <rect x="14" y="20" width="2" height="2" fill="#d946ef" opacity="0.9" />

    <rect x="8" y="8" width="6" height="4" fill="#ffffff" />
  </g>
</svg>